<?xml version="1.0" encoding="UTF-8" standalone="no"?>
<!-- Created with Inkscape (http://www.inkscape.org/) -->

<svg
   width="1024"
   height="1024"
   viewBox="0 0 270.93333 270.93333"
   version="1.1"
   id="svg1"
   xml:space="preserve"
   inkscape:version="1.4 (e7c3feb1, 2024-10-09)"
   sodipodi:docname="icon.svg"
   xmlns:inkscape="http://www.inkscape.org/namespaces/inkscape"
   xmlns:sodipodi="http://sodipodi.sourceforge.net/DTD/sodipodi-0.dtd"
   xmlns="http://www.w3.org/2000/svg"
   xmlns:svg="http://www.w3.org/2000/svg"><sodipodi:namedview
     id="namedview1"
     pagecolor="#ffffff"
     bordercolor="#000000"
     borderopacity="0.25"
     inkscape:showpageshadow="2"
     inkscape:pageopacity="0.0"
     inkscape:pagecheckerboard="0"
     inkscape:deskcolor="#d1d1d1"
     inkscape:document-units="px"
     inkscape:zoom="0.89887065"
     inkscape:cx="553.47229"
     inkscape:cy="516.75956"
     inkscape:window-width="1664"
     inkscape:window-height="1188"
     inkscape:window-x="1015"
     inkscape:window-y="223"
     inkscape:window-maximized="0"
     inkscape:current-layer="layer1" /><defs
     id="defs1" /><g
     inkscape:label="图层 1"
     inkscape:groupmode="layer"
     id="layer1"><path
       d="m 218.60278,146.80336 h -15.28551 v 67.93565 h -59.44358 v -28.27822 l 23.69254,-23.69253 6.02926,1.01903 c 9.85069,0 17.83313,-7.98246 17.83313,-17.8331 0,-9.85068 -7.98244,-17.83312 -17.83313,-17.83312 a 17.833102,17.833102 0 0 0 -17.83309,17.83312 l 0.84924,6.02927 -12.73793,12.90778 v -46.5359 c 5.60473,-3.05711 9.34117,-8.91658 9.34117,-15.7101 a 17.833102,17.833102 0 0 0 -17.83309,-17.8331 17.833102,17.833102 0 0 0 -17.83311,17.8331 c 0,6.79352 3.73648,12.65299 9.34117,15.7101 v 46.5359 l -12.73793,-12.90778 0.84924,-6.02927 a 17.833102,17.833102 0 0 0 -17.833092,-17.83312 17.833102,17.833102 0 0 0 -17.833117,17.83312 17.833102,17.833102 0 0 0 17.833117,17.8331 l 6.029302,-1.01903 23.69254,23.69253 v 28.27822 H 67.446123 V 146.80336 H 52.585195 c -3.566621,0 -7.048316,0 -7.048316,-1.78322 0.08344,-1.86828 3.651512,-5.43487 7.303059,-9.08641 L 126.88978,61.883931 c 2.80226,-2.802265 5.68961,-5.689615 8.49193,-5.689615 2.80226,0 5.68962,2.887318 8.49198,5.689615 l 33.9678,33.967794 v -8.491936 h 16.98392 v 25.475841 l 23.60757,23.6076 c 3.39669,3.39682 6.87841,6.8785 6.96347,8.6618 0,1.69849 -3.39667,1.69849 -6.79367,1.69849 M 97.167924,138.31158 a 7.6427579,7.6427579 0 0 1 7.642766,7.64277 7.6427579,7.6427579 0 0 1 -7.642766,7.64275 7.6427579,7.6427579 0 0 1 -7.642749,-7.64275 7.6427579,7.6427579 0 0 1 7.642749,-7.64277 m 76.427566,0 c 4.246,0 7.64278,3.39678 7.64278,7.64277 0,4.24595 -3.39678,7.64275 -7.64278,7.64275 a 7.6427579,7.6427579 0 0 1 -7.64274,-7.64275 7.6427579,7.6427579 0 0 1 7.64274,-7.64277 M 135.38171,95.002638 c 4.24599,0 7.64275,3.396777 7.64275,7.642762 0,4.24594 -3.39676,7.64274 -7.64275,7.64274 -4.24595,0 -7.64275,-3.3968 -7.64275,-7.64274 0,-4.245985 3.3968,-7.642762 7.64275,-7.642762 z"
       id="path1"
       style="stroke-width:8.49194" /></g></svg>
